# xmcd CD database file
#
# Track frame offsets:
#	150
#	16500
#	33920
#	51044
#	67053
#	84985
#	100133
#	115257
#	132346
#	148483
#	163597
#	178029
#	193212
#	214225
#	241177
#
# Disc length: 3742 seconds
#
# Revision: 0
# Processed by: cddbd v1.5.2PL0 Copyright (c) Steve Scherf et al.
# Submitted via: CDex 1.70beta2
#
DISCID=d20e9c0f
DTITLE=Wouter Hamel - Hamel
DYEAR=2007
DGENRE=Jazz
TTITLE0=Details
TTITLE1=Cheap Chardonnay
TTITLE2=Just What I Need
TTITLE3=Fantastic
TTITLE4=Breezy
TTITLE5=Ride That Sunbeam
TTITLE6=A Distant Melody
TTITLE7=Nothing's Any Good
TTITLE8=Interpretation Of Love
TTITLE9=Don't Ask
TTITLE10=Would You
TTITLE11=Useless Fraud
TTITLE12=As Long As We're In Love
TTITLE13=Maybe I'll Enjoy It Next Year
TTITLE14=Video
EXTD=YEAR: 2007
EXTT0=
EXTT1=
EXTT2=
EXTT3=
EXTT4=
EXTT5=
EXTT6=
EXTT7=
EXTT8=
EXTT9=
EXTT10=
EXTT11=
EXTT12=
EXTT13=
EXTT14=
PLAYORDER=
